name processed_emg_signals
nRows=90
nColumns=7
 
endheader
time	RGLTMED	RRF	RADDLONG	RST	RTA	RGM
1.8820000000000001	0.0693838094872677	0.0765073368988012	0.0523013794924082	0.0232613927191107	0.412532570026592	0.0906839227042621
1.883	0.0694934805983754	0.076800606540215	0.0523733167281054	0.0232836505362524	0.4130365079829356	0.0913505289494417
1.8840000000000001	0.0695978312705899	0.0770973271248836	0.0524460084845807	0.0233158417571308	0.4136910941472302	0.0920227208027112
1.885	0.0696970147241946	0.0773976371215127	0.0525193135673775	0.0233575160949499	0.414496910864274	0.0926997788898798
1.8860000000000001	0.0697911867834661	0.0777016683298999	0.0525930890901752	0.0234082274427192	0.4154543411229972	0.0933809783996807
1.887	0.0698805053972726	0.0780095453639444	0.0526671907291839	0.0234675342974353	0.4165635702977998	0.0940655899118903
1.8880000000000001	0.0699651301702212	0.0783213851344935	0.0527414729765425	0.0235350001653543	0.4178245881557082	0.0947528802298914
1.889	0.0700452219055705	0.0786372963350222	0.052815789392303	0.0236101939482712	0.4192371911178086	0.0954421132178688
1.8900000000000001	0.0701209421610406	0.0789573789329979	0.0528899928545321	0.0236926903107974	0.4208009847633726	0.0961325506428431
1.891	0.0701924528186099	0.0792817236698124	0.0529639358070922	0.0237820700285937	0.4225153865655507	0.0968234530217669
1.8920000000000001	0.0702599156691378	0.0796104115719233	0.0530374705046593	0.0238779203175294	0.4243796288479443	0.0975140804738741
1.893	0.0703234920126857	0.0799435134757281	0.0531104492546931	0.0239798351436829	0.426392761951999	0.098203693578365
1.8940000000000001	0.0703833422750625	0.0802810895684539	0.0531827246561303	0.0240874155140499	0.4285536576055008	0.0988915542373142
1.895	0.0704396256411066	0.080623188947192	0.053254149834733	0.0242002697478033	0.430861012482583	0.0995769265434739
1.8960000000000001	0.0704924997049852	0.0809698491979194	0.053324578674983	0.0243180137279428	0.4333133519453639	0.1002590776524988
1.897	0.0705421201376915	0.0813210959961744	0.0533938660483903	0.024440271133157	0.4359090339571392	0.1009372786589144
1.8980000000000001	0.0705886403717332	0.0816769427308761	0.0534618680380197	0.0245666736497398	0.4386462531563632	0.1016108054750309
1.899	0.0706322113029252	0.0820373901525146	0.0535284421589005	0.0246968611634118	0.441523045079898	0.1022789397118702
1.9000000000000001	0.0706729810091101	0.0824024260468573	0.0535934475739562	0.0248304819309734	0.4445372905230018	0.1029409695610713
1.901	0.0707110944857004	0.0827720249350238	0.0536567453049238	0.0249671927317262	0.4476867200228848	0.1035961906766876
1.9020000000000001	0.0707466933978854	0.0831461478007316	0.0537181984376806	0.0251066589987232	0.4509689184525488	0.1042439070556879
1.903	0.0707799158494335	0.083524741845284	0.0537776723213474	0.02524855493002	0.4543813297119625	0.1048834319159111
1.9040000000000001	0.0708108961680594	0.0839077402708694	0.0538350347605227	0.0253925635801612	0.4579212615045237	0.105514088569962
1.905	0.0708397647072954	0.0842950620927502	0.0538901562001783	0.0255383769322977	0.4615858901877482	0.1061352112933589
1.9060000000000001	0.0708666476648579	0.0846866119807981	0.0539429099028182	0.0256856959513882	0.4653722656882449	0.1067461461849701
1.907	0.0708916669174077	0.0850822801309213	0.0539931721176444	0.0258342306189996	0.469277316472161	0.1073462520176328
1.9080000000000001	0.0709149398715375	0.0854819421667181	0.0540408222415704	0.0259836999504217	0.4732978545635601	0.1079349010767982
1.909	0.0709365793306533	0.0858854590717468	0.0540857429718676	0.0261338319947516	0.4774305806045921	0.108511479985142
1.9100000000000001	0.0709566933772232	0.0862926771526237	0.0541278204501712	0.0262843638187964	0.4816720889522061	0.109075390511158
1.911	0.0709753852699013	0.0867034280331189	0.054166944397488	0.0264350414755763	0.4860188728069314	0.1096260503598933
1.9120000000000001	0.07099275335495	0.0871175286793133	0.054203008239745	0.0265856199582622	0.4904673293703493	0.1101628939440807
1.913	0.0710088909915361	0.0875347814558273	0.0542359092235156	0.0267358631403791	0.4950137650295851	0.1106853731340049
1.9140000000000001	0.0710238864906371	0.0879549742131651	0.0542655485215602	0.0268855437031326	0.4996544005691185	0.1111929579846289
1.915	0.0710378230673321	0.0883778804062886	0.0542918313281042	0.0270344430506466	0.5043853764118462	0.1116851374385212
1.9160000000000001	0.071050778806381	0.0888032592445396	0.0543146669438425	0.0271823512139561	0.5092027578921203	0.1121614200031763
1.917	0.0710628266408692	0.0892308558731302	0.054333968850875	0.0273290667445249	0.5141025405637418	0.1126213344012892
1.9180000000000001	0.0710740343436619	0.0896604015863778	0.0543496547778087	0.0274743965981268	0.519080655545519	0.113064430192442
1.919	0.0710844645312799	0.090091614072817	0.0543616467552778	0.0276181560098523	0.5241329749063552	0.1134902783647265
1.92	0.0710941746797433	0.0905241976922897	0.0543698711620422	0.0277601683610843	0.5292553170907203	0.1138984718949005
1.921	0.0711032171517614	0.0909578437849779	0.0543742587618868	0.0279002650391284	0.5344434523839472	0.1142886262758752
1.922	0.0711116392345596	0.0913922310122166	0.0543747447314781	0.0280382852901436	0.5396931084150037	0.1146603800105497
1.923	0.071119483187573	0.0918270257289314	0.0543712686794515	0.028174076065983	0.5449999756925115	0.1150133950713654
1.924	0.0711267862991786	0.0922618823874435	0.0543637746570372	0.0283074918653891	0.5503597131679474	0.1153473573252218
1.925	0.0711335809516695	0.0926964439724438	0.0543522111606822	0.0284383945700234	0.5557679538181856	0.1156619769236789
1.926	0.0711398946936311	0.0931303424668198	0.0543365311272356	0.0285666532757426	0.5612203102380545	0.1159569886585216
1.927	0.0711457503188634	0.0935631993480241	0.0543166919222006	0.0286921441195044	0.5667123802324476	0.1162321522828365
1.928	0.0711511659509259	0.093994626114339	0.0542926553216068	0.0288147501023741	0.5722397523967715	0.1164872527978184
1.929	0.0711561551323024	0.0944242248403862	0.0542643874878838	0.0289343609090357	0.5777980116740619	0.1167221007054886
1.93	0.0711607269170258	0.0948515887609186	0.0542318589400386	0.0290508727243415	0.5833827448767973	0.1169365322275002
1.931	0.0711648859655591	0.0952763028819058	0.0541950445182906	0.0291641880473228	0.5889895461614282	0.1171304094901536
1.932	0.0711686326405536	0.095697944617724	0.0541539233432826	0.0292742155031397	0.5946140224432445	0.1173036206757608
1.933	0.0711719631021594	0.0961160844533172	0.0541084787699132	0.029380869653362	0.6002517987384157	0.1174560801404621
1.934	0.071174869401561	0.0965302866300974	0.0540586983359119	0.0294840708049564	0.6058985234187535	0.1175877284986051
1.935	0.0711773395717036	0.0969401098544068	0.0540045737053865	0.0295837448184313	0.6115498733634374	0.1176985326738372
1.936	0.0711793577144021	0.0973451080272743	0.0539461006075856	0.0296798229155415	0.6172015589909849	0.1177884859169583
1.937	0.0711809040834411	0.0977448309942011	0.0538832787712603	0.0297722414870818	0.6228493291544975	0.1178576077904742
1.938	0.0711819551634138	0.0981388253136561	0.0538161118549918	0.0298609419012927	0.6284889758834759	0.117905944119642
1.939	0.0711824837442051	0.0985266350429944	0.0537446073738516	0.0299458703133923	0.6341163389564588	0.1179335669095086
1.94	0.0711824589908902	0.0989078025406002	0.0536687766226305	0.0300269774767566	0.639727310290039	0.1179405742273101
1.941	0.0711818465087739	0.0992818692831094	0.0535886345957986	0.0301042185561807	0.6453178381314996	0.1179270900494126
1.942	0.0711806084033074	0.0996483766967419	0.053504199904315	0.0301775529436388	0.6508839310445625	0.117893264071918
1.943	0.0711787033348175	0.1000068670016739	0.053415494689298	0.0302469440769569	0.6564216616800049	0.1178392714839669
1.944	0.0711760865683403	0.1003568840682991	0.0533225445327418	0.0303123592617882	0.6619271703250357	0.1177653127026967
1.945	0.0711727100192284	0.1006979742840237	0.0532253783655501	0.0303737694973385	0.6673966682271012	0.1176716130688293
1.946	0.0711685222954392	0.1010296874289673	0.0531240283732582	0.0304311493063107	0.6728264406897033	0.117558422501912
1.947	0.0711634687376253	0.101351577558773	0.0530185298999629	0.0304844765694631	0.678212849939861	0.1174260151144138
1.948	0.0711574914581113	0.1016632038925432	0.0529089213509237	0.0305337323651785	0.6835523377690229	0.11727468878409
1.949	0.0711505293798495	0.1019641317037326	0.0527952440943387	0.0305789008144144	0.6888414279516162	0.1171047646841786
1.95	0.0711425182764197	0.1022539332116946	0.0526775423627642	0.0306199689313148	0.6940767284477446	0.1169165867710962
1.951	0.0711333908139776	0.1025321884714208	0.0525558631547294	0.0306569264798843	0.6992549333981367	0.1167105212294362
1.952	0.0711230765959636	0.1027984862588913	0.0524302561371322	0.0306897658369454	0.7043728249204322	0.1164869558740837
1.953	0.0711115022112552	0.1030524249494415	0.0523007735490219	0.030718481861657	0.7094272747160553	0.1162462995095691
1.954	0.0710985912861582	0.1032936133864184	0.0521674701074196	0.0307430717717745	0.7144152454970918	0.1159889812471431
1.955	0.0710842645406088	0.1035216717373183	0.0520304029157958	0.030763535026744	0.7193337922428905	0.1157154497804367
1.956	0.0710684398487956	0.1037362323345462	0.0518896313757829	0.0307798732177298	0.7241800632968362	0.1154261726210131
1.957	0.0710510323044642	0.1039369404978891	0.0517452171026519	0.0307920899646008	0.7289513013144523	0.1151216352954471
1.958	0.0710319542912263	0.1041234553359867	0.0515972238449629	0.0308001908199166	0.733644844074462	0.1148023405059259
1.959	0.0710111155582949	0.1042954505240792	0.0514457174087562	0.0308041831799133	0.7382581251646316	0.1144688072565653
1.96	0.0709884233020793	0.1044526150555125	0.0512907655865528	0.030804076202555	0.7427886745542815	0.1141215699478638
1.961	0.0709637822540837	0.1045946539644447	0.0511324380912929	0.0307998807326964	0.7472341190652494	0.1137611774418135
1.962	0.0709370947754959	0.104721289017204	0.0509708064953005	0.0307916092344231	0.7515921827522812	0.1133881921002209
1.963	0.0709082609587631	0.1048322593698403	0.050805944174121	0.0307792757307054	0.7558606872024433	0.1130031887986588
1.964	0.070877178736415	0.1049273221893786	0.0506379262550585	0.0307628957504019	0.7600375517612192	0.1126067539184271
1.965	0.0708437439972506	0.1050062532366041	0.0504668295701115	0.0307424862827445	0.7641207936911225	0.1121994843189176
1.966	0.070807850709939	0.1050688474084378	0.0502927326129362	0.0307180657393651	0.7681085282670875	0.111781986292871
1.967	0.0707693910539354	0.1051149192382274	0.0501157154993664	0.0306896539239043	0.7719989688124949	0.1113548745072948
1.968	0.0707282555576016	0.1051443033527001	0.0499358599309825	0.0306572720092705	0.7757904266800987	0.1109187709329809
1.969	0.0706843332432941	0.1051568548844559	0.049753249161118	0.0306209425225547	0.7794813111835536	0.1104743037657609
1.97	0.0706375117790854	0.1051524498391211	0.049567967962675	0.0305806893375973	0.783070129486838	0.1100221063428377
1.971	0.0705876776367234	0.1051309854162966	0.0493801025970951	0.0305365376750658	0.7865554864601001	0.1095628160576976
